<svg width="150" height="150" viewBox="0 0 150 150" fill="none" xmlns="http://www.w3.org/2000/svg">
<path d="M68.1201 0.233177C58.5641 1.27275 51.0913 3.35191 42.9845 7.19382C29.0354 13.8381 17.5319 24.5954 9.51563 38.4263C0.593616 53.8844 -2.21433 73.0939 1.77114 91.5803C4.30735 103.196 10.829 115.988 18.6641 124.53C31.164 138.226 44.8867 146 61.7796 148.983C69.3429 150.339 80.4389 150.339 88.0928 148.983C109.877 145.186 129.034 131.717 140.13 112.327C147.195 100.033 150.411 87.0604 149.958 73.0035C149.596 61.5682 147.467 52.3928 143.029 43.1722C131.978 20.1207 110.285 4.07509 85.6471 0.730366C80.3483 0.00718248 72.4679 -0.218812 68.1201 0.233177ZM72.6491 24.053C72.6038 24.279 70.6111 32.3245 68.1654 42.0422C65.7198 51.7148 63.9082 59.715 64.0894 59.8054C65.0405 60.167 84.4243 55.5567 84.4243 54.9239C84.4243 54.6076 77.3592 26.1322 76.9063 24.505C76.6798 23.7818 77.178 23.7366 83.3827 23.7366H90.1308L94.5692 35.3528C97.0148 41.771 99.3245 47.6921 99.6416 48.5057L100.23 49.9973L102.178 48.8221C103.265 48.1441 104.986 46.6525 106.027 45.5226L107.975 43.3982V45.3418C107.975 51.1272 103.718 54.1556 89.3609 58.4947C85.2848 59.715 78.582 61.4326 74.4607 62.3366C54.3974 66.6757 44.6602 69.478 40.403 72.0996C39.1349 72.8679 38.048 73.4103 37.9121 73.2747C37.1875 72.5967 38.5461 70.0656 40.6747 68.1672L43.0751 65.9977L48.1928 52.664C50.9554 45.3418 54.1257 37.0703 55.2127 34.3584C56.2543 31.6013 57.613 28.1209 58.1565 26.539L59.1981 23.7366H65.901C69.6147 23.7366 72.6491 23.8722 72.6491 24.053ZM112.413 52.8448C112.277 54.3816 111.824 56.2799 111.417 57.0935C109.515 60.7998 104.533 64.0993 97.4677 66.4045C94.4333 67.3537 75.6835 72.1448 58.1565 76.3935C45.3396 79.467 37.8668 82.4049 33.7455 85.9756L31.8886 87.5576V85.6593C31.8886 80.2354 37.1875 76.0771 48.5098 72.5967C50.9554 71.8284 61.0097 69.3424 70.8375 67.0825C80.6653 64.8225 90.9913 62.2462 93.7087 61.4326C102.948 58.5399 107.975 55.6019 110.511 51.5792C111.236 50.4492 111.96 49.6809 112.187 49.8165C112.413 49.9521 112.504 51.308 112.413 52.8448ZM116.625 63.2406C115.629 67.5345 112.73 70.834 107.748 73.3199C103.174 75.6251 88.591 79.919 63.5912 86.3824C41.7617 91.9871 35.557 94.6086 29.3071 100.982L26.7709 103.513L27.0426 100.982C27.722 94.2019 34.1984 88.0548 44.7961 84.1677C49.0533 82.5857 52.1783 81.7721 69.4788 77.5686C103.763 69.252 110.466 66.5401 115.131 59.2178L116.308 57.4099L116.716 59.1726C117.033 60.3478 116.987 61.6586 116.625 63.2406ZM116.127 91.3091C124.687 113.592 125.638 116.078 125.502 116.214C125.457 116.259 123.373 115.943 120.882 115.491C118.391 115.039 112.911 114.225 108.654 113.683C104.442 113.14 100.457 112.553 99.868 112.417C98.8264 112.101 98.5093 111.151 95.2485 98.089C93.3011 90.3599 91.7159 83.8513 91.6706 83.5349C91.6706 83.2637 94.5692 82.0885 98.147 80.9586C101.68 79.7834 105.846 78.2918 107.295 77.5686C108.79 76.8454 110.149 76.3935 110.285 76.5743C110.466 76.7099 113.093 83.3541 116.127 91.3091ZM55.2579 93.8855C55.1221 94.4731 54.0351 98.6766 52.9029 103.287C51.7254 107.897 50.5931 111.829 50.412 112.055C50.2308 112.281 46.9247 112.824 43.1204 113.321C39.3161 113.818 33.4284 114.677 30.077 115.219C26.7256 115.807 23.9177 116.214 23.8724 116.169C23.4648 115.897 27.3144 107.264 28.4466 105.818C30.2582 103.603 34.7871 100.213 38.4556 98.3602C41.8523 96.6878 52.9029 92.8911 54.488 92.8911C55.3485 92.8911 55.4844 93.0719 55.2579 93.8855Z" fill="#0A0A75"/>
</svg>
